<svg xmlns="http://www.w3.org/2000/svg" width="900" height="600" viewBox="0 0 900 600"><rect width="100%" height="100%" fill="#DDDDDD"/><path fill="#999999" d="M198.17 282.81q0 7.2 3.72 10.97 3.72 3.78 10.56 3.78 3.57 0 6.36-1.13 2.8-1.13 4.7-3.09 1.91-1.97 2.89-4.64.98-2.68.98-5.78 0-3.51-1.07-6.27-1.07-2.77-3.03-4.67-1.97-1.91-4.67-2.92-2.71-1.01-5.92-1.01-3.34 0-6.01 1.1-2.68 1.1-4.59 3.06-1.9 1.97-2.91 4.68-1.01 2.7-1.01 5.92m-7.2 60.21 26.71-33.38q1.02-1.25 1.91-2.44t1.72-2.38q-2.97 1.9-6.54 2.89-3.57.98-7.5.98-4.46 0-8.75-1.55-4.28-1.55-7.61-4.67t-5.39-7.73q-2.05-4.62-2.05-10.8 0-5.78 2.14-10.83 2.15-5.06 6.01-8.87 3.87-3.81 9.28-6.01 5.42-2.2 11.96-2.2 6.61 0 11.87 2.08 5.27 2.09 8.99 5.83 3.72 3.75 5.71 8.99 1.99 5.23 1.99 11.48 0 3.99-.68 7.56t-1.93 6.87-3.04 6.46q-1.78 3.15-3.98 6.24l-19.7 28.09q-1.01 1.43-3.03 2.41-2.03.98-4.59.98zM313.6 300q0 11.25-2.41 19.55t-6.67 13.71q-4.25 5.42-10.05 8.06-5.8 2.65-12.53 2.65-6.72 0-12.46-2.65-5.74-2.64-9.97-8.06-4.22-5.41-6.6-13.71T250.53 300q0-11.3 2.38-19.57t6.6-13.69q4.23-5.41 9.97-8.06t12.46-2.65q6.73 0 12.53 2.65t10.05 8.06q4.26 5.42 6.67 13.69T313.6 300m-15.17 0q0-9.34-1.37-15.47t-3.66-9.76-5.27-5.08q-2.97-1.46-6.19-1.46-3.15 0-6.09 1.46-2.95 1.45-5.21 5.08t-3.6 9.76T265.7 300t1.34 15.47 3.6 9.76 5.21 5.09q2.94 1.45 6.09 1.45 3.22 0 6.19-1.45 2.98-1.46 5.27-5.09t3.66-9.76 1.37-15.47m84.19 0q0 11.25-2.41 19.55t-6.67 13.71q-4.25 5.42-10.05 8.06-5.8 2.65-12.53 2.65-6.72 0-12.46-2.65-5.74-2.64-9.97-8.06-4.22-5.41-6.6-13.71T319.55 300q0-11.3 2.38-19.57t6.6-13.69q4.23-5.41 9.97-8.06t12.46-2.65q6.73 0 12.53 2.65t10.05 8.06q4.26 5.42 6.67 13.69t2.41 19.57m-15.17 0q0-9.34-1.37-15.47t-3.66-9.76-5.27-5.08q-2.97-1.46-6.19-1.46-3.15 0-6.09 1.46-2.95 1.45-5.21 5.08t-3.6 9.76-1.34 15.47 1.34 15.47 3.6 9.76 5.21 5.09q2.94 1.45 6.09 1.45 3.22 0 6.19-1.45 2.98-1.46 5.27-5.09t3.66-9.76 1.37-15.47m109.65 23.33-7.79 7.67-20.17-20.17-20.35 20.29-7.79-7.68 20.34-20.4-19.39-19.4 7.73-7.74 19.4 19.4 19.28-19.28 7.85 7.74-19.34 19.34zm91.93-66.35-25.52 31.24-2.98 3.69q2.5-1.25 5.39-1.93 2.88-.69 6.21-.69 4.88 0 9.49 1.61 4.62 1.6 8.13 4.85 3.51 3.24 5.65 8.06t2.14 11.24q0 6.01-2.2 11.28t-6.19 9.19q-3.99 3.93-9.61 6.19t-12.4 2.26q-6.91 0-12.38-2.2t-9.34-6.16q-3.87-3.95-5.92-9.52-2.05-5.56-2.05-12.34 0-6.07 2.46-12.47 2.47-6.4 7.65-13.3l20.53-27.55q1.07-1.42 3.12-2.44 2.05-1.01 4.73-1.01zm-22.19 74.97q3.51 0 6.45-1.19 2.95-1.19 5.06-3.33t3.3-5.03q1.19-2.88 1.19-6.27 0-3.69-1.13-6.64-1.13-2.94-3.21-5-2.08-2.05-5-3.12-2.91-1.07-6.42-1.07t-6.37 1.19-4.88 3.3-3.15 5q-1.13 2.88-1.13 6.22 0 3.57.98 6.51.98 2.95 2.91 5.03 1.94 2.08 4.79 3.24 2.86 1.16 6.61 1.16M647.51 300q0 11.25-2.41 19.55t-6.66 13.71q-4.26 5.42-10.06 8.06-5.8 2.65-12.52 2.65-6.73 0-12.47-2.65-5.74-2.64-9.96-8.06-4.23-5.41-6.61-13.71T584.44 300q0-11.3 2.38-19.57t6.61-13.69q4.22-5.41 9.96-8.06t12.47-2.65q6.72 0 12.52 2.65t10.06 8.06q4.25 5.42 6.66 13.69t2.41 19.57m-15.17 0q0-9.34-1.37-15.47t-3.66-9.76-5.26-5.08q-2.98-1.46-6.19-1.46-3.16 0-6.1 1.46-2.95 1.45-5.21 5.08t-3.6 9.76-1.34 15.47 1.34 15.47 3.6 9.76 5.21 5.09q2.94 1.45 6.1 1.45 3.21 0 6.19-1.45 2.97-1.46 5.26-5.09t3.66-9.76 1.37-15.47m84.19 0q0 11.25-2.41 19.55t-6.66 13.71q-4.26 5.42-10.06 8.06-5.8 2.65-12.52 2.65-6.73 0-12.47-2.65-5.74-2.64-9.96-8.06-4.23-5.41-6.61-13.71T653.46 300q0-11.3 2.38-19.57t6.61-13.69q4.22-5.41 9.96-8.06t12.47-2.65q6.72 0 12.52 2.65t10.06 8.06q4.25 5.42 6.66 13.69t2.41 19.57m-15.17 0q0-9.34-1.37-15.47t-3.66-9.76-5.26-5.08q-2.98-1.46-6.19-1.46-3.16 0-6.1 1.46-2.95 1.45-5.21 5.08t-3.6 9.76-1.34 15.47 1.34 15.47 3.6 9.76 5.21 5.09q2.94 1.45 6.1 1.45 3.21 0 6.19-1.45 2.97-1.46 5.26-5.09t3.66-9.76 1.37-15.47"/></svg>